<?xml version="1.0" standalone="no"?>
<!DOCTYPE svg PUBLIC "-//W3C//DTD SVG 20010904//EN"
 "http://www.w3.org/TR/2001/REC-SVG-20010904/DTD/svg10.dtd">
<svg version="1.0" xmlns="http://www.w3.org/2000/svg"
 width="18px" height="18px" viewBox="0 0 400.000000 400.000000"
 preserveAspectRatio="xMidYMid meet">

<g transform="translate(0.000000,400.000000) scale(0.100000,-0.100000)"
fill="#ffffff" stroke="none">
<path d="M1845 3744 c-140 -19 -193 -29 -280 -51 -197 -49 -412 -148 -585
-271 -122 -86 -316 -280 -402 -402 -157 -221 -259 -472 -309 -760 -18 -99 -18
-421 0 -520 50 -288 152 -539 309 -760 86 -122 280 -316 402 -402 221 -157
472 -259 760 -309 99 -18 421 -18 520 0 288 50 539 152 760 309 122 86 316
280 402 402 123 173 222 388 271 585 44 174 52 242 52 435 0 310 -58 545 -201
819 -81 155 -174 281 -309 416 -264 264 -568 421 -950 491 -77 15 -378 27
-440 18z m547 -423 c101 -26 219 -87 309 -159 41 -33 245 -231 454 -441 l380
-381 -185 -185 -185 -185 -375 374 c-266 265 -391 383 -430 405 -125 70 -218
64 -302 -20 -56 -56 -84 -133 -73 -202 18 -110 33 -129 438 -535 l382 -382
-185 -185 -184 -185 -376 374 c-265 263 -391 383 -430 405 -124 69 -218 64
-300 -18 -73 -73 -90 -176 -49 -288 20 -54 48 -85 408 -446 l386 -387 -185
-185 -185 -185 -500 498 c-275 274 -551 545 -613 603 l-112 104 159 159 159
159 90 -71 c49 -40 92 -72 94 -72 2 0 1 28 -3 63 -21 175 43 348 181 488 150
153 333 204 516 145 19 -6 20 -3 20 111 1 204 52 331 189 469 151 152 318 203
507 155z"/>
</g>
</svg>
